<?xml version="1.0" encoding="iso-8859-1"?>
<!-- Generator: Adobe Illustrator 16.0.0, SVG Export Plug-In . SVG Version: 6.00 Build 0)  -->
<!DOCTYPE svg PUBLIC "-//W3C//DTD SVG 1.1//EN" "http://www.w3.org/Graphics/SVG/1.1/DTD/svg11.dtd">
<svg xmlns="http://www.w3.org/2000/svg" xmlns:xlink="http://www.w3.org/1999/xlink" version="1.1" id="Capa_1" x="0px" y="0px" width="512px" height="512px" viewBox="0 0 612 612" style="enable-background:new 0 0 612 612;" xml:space="preserve">
<g>
	<g>
		<path d="M582.515,220.85H29.43C13.192,220.85,0,205.863,0,187.476c0-18.387,13.192-33.347,29.43-33.347h553.084    c16.267,0,29.485,14.96,29.485,33.347C612,205.863,598.781,220.85,582.515,220.85z M582.325,181.302L29.43,181.329    c-0.326,0.19-2.23,2.203-2.23,6.147c0,3.971,1.904,5.984,2.448,6.229l552.731-0.027c0.734-0.435,2.421-2.638,2.421-6.202    C584.8,183.804,583.032,181.574,582.325,181.302z" fill="#212121"/>
		<path d="M582.515,339.361H29.43c-16.238,0-29.43-14.96-29.43-33.374C0,287.6,13.192,272.64,29.43,272.64h553.084    c16.267,0,29.485,14.96,29.485,33.348C612,324.401,598.781,339.361,582.515,339.361z M582.325,299.812L29.43,299.839    c-0.326,0.19-2.23,2.203-2.23,6.147c0,3.971,1.904,5.983,2.475,6.229l552.704-0.027c0.734-0.407,2.421-2.638,2.421-6.201    C584.8,302.314,583.032,300.084,582.325,299.812z" fill="#212121"/>
		<path d="M582.515,457.871H29.43c-16.238,0-29.43-14.96-29.43-33.374c0-18.387,13.192-33.347,29.43-33.347h553.084    c16.267,0,29.485,14.96,29.485,33.347C612,442.911,598.781,457.871,582.515,457.871z M582.325,418.322L29.43,418.35    c-0.326,0.19-2.23,2.203-2.23,6.147c0,3.971,1.904,5.984,2.448,6.229l552.731-0.026c0.734-0.381,2.421-2.611,2.421-6.174    C584.8,420.852,583.032,418.594,582.325,418.322z" fill="#212121"/>
	</g>
</g>
<g>
</g>
<g>
</g>
<g>
</g>
<g>
</g>
<g>
</g>
<g>
</g>
<g>
</g>
<g>
</g>
<g>
</g>
<g>
</g>
<g>
</g>
<g>
</g>
<g>
</g>
<g>
</g>
<g>
</g>
</svg>
