<?xml version="1.0" encoding="iso-8859-1"?>
<!-- Generator: Adobe Illustrator 19.1.0, SVG Export Plug-In . SVG Version: 6.00 Build 0)  -->
<svg version="1.1" id="Capa_1" xmlns="http://www.w3.org/2000/svg" xmlns:xlink="http://www.w3.org/1999/xlink" x="0px" y="0px"
	 viewBox="0 0 420.81 420.81" style="enable-background:new 0 0 420.81 420.81;" xml:space="preserve">
<g>
	<path style="fill:#F9E6D9;" d="M390.105,228.93c0,13.18-8.52,24.41-20.33,28.49c0.02-0.88,0.06-1.76,0.06-2.64
		c0-18.71-1.8-37.35-5.29-55.64C378.995,201.35,390.105,213.87,390.105,228.93z"/>
	<path style="fill:#F9E6D9;" d="M56.275,199.14c-3.49,18.29-5.28,36.93-5.28,55.64c0,0.88,0.03,1.76,0.06,2.64
		c-11.82-4.07-20.35-15.3-20.35-28.49C30.705,213.86,41.825,201.34,56.275,199.14z"/>
	<path style="fill:#7F4B05;" d="M379.335,184.93v2.14c-5.62-2.61-11.84-4.12-18.39-4.25c-6.46-25.85-16.39-50.83-29.58-74.14
		l-1.22-2.16c-6.92-12.25-19.45-20.11-33.5-21.05c-13.92-0.91-27.23,5.14-35.62,16.22l-0.32,0.43
		c-11.96,16.07-30.29,25.28-50.3,25.28c-20,0-38.34-9.22-50.31-25.3l-0.33-0.43c-8.38-11.07-21.69-17.13-35.6-16.2
		c-14.06,0.93-26.58,8.8-33.5,21.05l-1.24,2.18c-13.18,23.3-23.09,48.27-29.55,74.12c-6.56,0.13-12.78,1.64-18.39,4.25v-2.14
		c0-93.15,75.78-168.93,168.92-168.93C303.555,16,379.335,91.78,379.335,184.93z"/>
	<path style="fill:#F9E6D9;" d="M317.445,116.55c23.8,42.09,36.39,89.89,36.39,138.23c0,33.08-26.98,76-78.01,124.1
		c-36.68,34.58-94.15,34.58-130.83,0c-51.03-48.1-78-91.01-78-124.12c0-48.33,12.57-96.12,36.36-138.19l1.23-2.18
		c4.27-7.54,11.98-12.38,20.64-12.96c0.6-0.04,1.2-0.06,1.79-0.06c7.95,0,15.16,3.57,20.01,9.97l0.24,0.33
		c14.8,19.87,38.4,31.73,63.14,31.73s48.35-11.86,63.13-31.72l0.26-0.35c5.19-6.86,13.14-10.47,21.78-9.89
		c8.67,0.57,16.38,5.42,20.65,12.95L317.445,116.55z M327.955,207.77c4.14-1.55,6.24-6.16,4.69-10.3
		c-2.97-7.94-8.86-14.24-16.57-17.75c-7.71-3.51-16.33-3.81-24.27-0.83l-25.22,9.44c-4.13,1.55-6.23,6.16-4.68,10.3
		s6.16,6.24,10.3,4.69l25.22-9.45c8.12-3.04,17.19,1.09,20.23,9.21c1.21,3.21,4.26,5.2,7.5,5.2
		C326.085,208.28,327.035,208.11,327.955,207.77z M312.975,246.57c0-8.67-7.03-15.7-15.7-15.7c-8.67,0-15.7,7.03-15.7,15.7
		c0,8.67,7.03,15.7,15.7,15.7C305.945,262.27,312.975,255.24,312.975,246.57z M281.095,319.89c3.87-2.13,5.28-6.99,3.15-10.86
		s-6.99-5.28-10.87-3.15c-3.79,2.09-8.58,0.7-10.67-3.1l-1.92-3.47c-3.07-5.59-8.14-9.64-14.26-11.41
		c-6.12-1.78-12.57-1.06-18.15,2.01l-6.25,3.44c-3.87,2.13-5.28,7-3.15,10.87c2.13,3.87,6.99,5.28,10.87,3.15l6.25-3.44
		c1.84-1.01,3.96-1.25,5.98-0.67c2.02,0.59,3.68,1.92,4.7,3.76l1.91,3.48c4.34,7.88,12.52,12.35,20.94,12.35
		C273.515,322.85,277.455,321.9,281.095,319.89z M234.765,337.61c3.12-3.12,3.12-8.19,0-11.31c-3.12-3.12-8.19-3.12-11.31,0
		c-3.49,3.48-8.12,5.4-13.04,5.4c-4.93,0-9.56-1.92-13.04-5.4c-3.13-3.12-8.19-3.12-11.32,0c-3.12,3.12-3.12,8.19,0,11.31
		c6.51,6.51,15.16,10.09,24.36,10.09C219.615,347.7,228.255,344.12,234.765,337.61z M201.855,304.22c2.13-3.87,0.72-8.74-3.15-10.87
		l-6.26-3.44c-5.58-3.07-12.03-3.79-18.15-2.01c-6.12,1.77-11.19,5.82-14.26,11.41l-1.91,3.47c-2.09,3.8-6.88,5.19-10.68,3.1
		c-3.87-2.13-8.74-0.72-10.87,3.15c-2.13,3.87-0.72,8.73,3.15,10.86c3.64,2.01,7.58,2.96,11.47,2.96c8.42,0,16.6-4.47,20.94-12.35
		l1.92-3.48c1.01-1.84,2.68-3.17,4.69-3.76c2.02-0.58,4.15-0.35,5.99,0.67l6.25,3.44C194.855,309.5,199.725,308.09,201.855,304.22z
		 M158.925,198.63c1.55-4.14-0.55-8.75-4.69-10.3l-25.22-9.44c-7.94-2.98-16.55-2.68-24.27,0.83c-7.71,3.51-13.59,9.81-16.56,17.75
		c-1.55,4.14,0.54,8.75,4.68,10.3c0.93,0.34,1.87,0.51,2.81,0.51c3.24,0,6.29-1.99,7.49-5.2c3.04-8.12,12.12-12.25,20.24-9.21
		l25.22,9.45C152.755,204.87,157.375,202.77,158.925,198.63z M139.255,246.57c0-8.67-7.03-15.7-15.7-15.7
		c-8.68,0-15.71,7.03-15.71,15.7c0,8.67,7.03,15.7,15.71,15.7C132.225,262.27,139.255,255.24,139.255,246.57z"/>
	<path style="fill:#333333;" d="M395.335,199.34c6.71,8.02,10.77,18.34,10.77,29.59c0,22.87-16.74,41.9-38.61,45.51
		c-7.73,33.85-34.76,72.79-80.69,116.08c-21.42,20.19-48.91,30.29-76.39,30.29c-27.49,0-54.97-10.09-76.4-30.29
		c-45.92-43.29-72.96-82.23-80.69-116.08c-21.87-3.6-38.62-22.63-38.62-45.51c0-11.25,4.06-21.57,10.78-29.59v-14.41
		C25.485,82.96,108.435,0,210.405,0s184.93,82.96,184.93,184.93V199.34z M369.775,257.42c11.81-4.08,20.33-15.31,20.33-28.49
		c0-15.06-11.11-27.58-25.56-29.79c3.49,18.29,5.29,36.93,5.29,55.64C369.835,255.66,369.795,256.54,369.775,257.42z
		 M379.335,187.07v-2.14c0-93.15-75.78-168.93-168.93-168.93c-93.14,0-168.92,75.78-168.92,168.93v2.14
		c5.61-2.61,11.83-4.12,18.39-4.25c6.46-25.85,16.37-50.82,29.55-74.12l1.24-2.18c6.92-12.25,19.44-20.12,33.5-21.05
		c13.91-0.93,27.22,5.13,35.6,16.2l0.33,0.43c11.97,16.08,30.31,25.3,50.31,25.3c20.01,0,38.34-9.21,50.3-25.28l0.32-0.43
		c8.39-11.08,21.7-17.13,35.62-16.22c14.05,0.94,26.58,8.8,33.5,21.05l1.22,2.16c13.19,23.31,23.12,48.29,29.58,74.14
		C367.495,182.95,373.715,184.46,379.335,187.07z M353.835,254.78c0-48.34-12.59-96.14-36.39-138.23l-1.22-2.16
		c-4.27-7.53-11.98-12.38-20.65-12.95c-8.64-0.58-16.59,3.03-21.78,9.89l-0.26,0.35c-14.78,19.86-38.39,31.72-63.13,31.72
		s-48.34-11.86-63.14-31.73l-0.24-0.33c-4.85-6.4-12.06-9.97-20.01-9.97c-0.59,0-1.19,0.02-1.79,0.06
		c-8.66,0.58-16.37,5.42-20.64,12.96l-1.23,2.18c-23.79,42.07-36.36,89.86-36.36,138.19c0,33.11,26.97,76.02,78,124.12
		c36.68,34.58,94.15,34.58,130.83,0C326.855,330.78,353.835,287.86,353.835,254.78z M50.995,254.78c0-18.71,1.79-37.35,5.28-55.64
		c-14.45,2.2-25.57,14.72-25.57,29.79c0,13.19,8.53,24.42,20.35,28.49C51.025,256.54,50.995,255.66,50.995,254.78z"/>
	<path style="fill:#7F4B05;" d="M332.645,197.47c1.55,4.14-0.55,8.75-4.69,10.3c-0.92,0.34-1.87,0.51-2.8,0.51
		c-3.24,0-6.29-1.99-7.5-5.2c-3.04-8.12-12.11-12.25-20.23-9.21l-25.22,9.45c-4.14,1.55-8.75-0.55-10.3-4.69s0.55-8.75,4.68-10.3
		l25.22-9.44c7.94-2.98,16.56-2.68,24.27,0.83C323.785,183.23,329.675,189.53,332.645,197.47z"/>
	<circle style="fill:#333333;" cx="297.275" cy="246.57" r="15.7"/>
	<path style="fill:#7F4B05;" d="M284.245,309.03c2.13,3.87,0.72,8.73-3.15,10.86c-3.64,2.01-7.58,2.96-11.47,2.96
		c-8.42,0-16.6-4.47-20.94-12.35l-1.91-3.48c-1.02-1.84-2.68-3.17-4.7-3.76c-2.02-0.58-4.14-0.34-5.98,0.67l-6.25,3.44
		c-3.88,2.13-8.74,0.72-10.87-3.15c-2.13-3.87-0.72-8.74,3.15-10.87l6.25-3.44c5.58-3.07,12.03-3.79,18.15-2.01
		c6.12,1.77,11.19,5.82,14.26,11.41l1.92,3.47c2.09,3.8,6.88,5.19,10.67,3.1C277.255,303.75,282.115,305.16,284.245,309.03z"/>
	<path style="fill:#333333;" d="M234.765,326.3c3.12,3.12,3.12,8.19,0,11.31c-6.51,6.51-15.15,10.09-24.35,10.09
		c-9.2,0-17.85-3.58-24.36-10.09c-3.12-3.12-3.12-8.19,0-11.31c3.13-3.12,8.19-3.12,11.32,0c3.48,3.48,8.11,5.4,13.04,5.4
		c4.92,0,9.55-1.92,13.04-5.4C226.575,323.18,231.645,323.18,234.765,326.3z"/>
	<path style="fill:#7F4B05;" d="M198.705,293.35c3.87,2.13,5.28,7,3.15,10.87c-2.13,3.87-7,5.28-10.87,3.15l-6.25-3.44
		c-1.84-1.02-3.97-1.25-5.99-0.67c-2.01,0.59-3.68,1.92-4.69,3.76l-1.92,3.48c-4.34,7.88-12.52,12.35-20.94,12.35
		c-3.89,0-7.83-0.95-11.47-2.96c-3.87-2.13-5.28-6.99-3.15-10.86c2.13-3.87,7-5.28,10.87-3.15c3.8,2.09,8.59,0.7,10.68-3.1
		l1.91-3.47c3.07-5.59,8.14-9.64,14.26-11.41c6.12-1.78,12.57-1.06,18.15,2.01L198.705,293.35z"/>
	<path style="fill:#7F4B05;" d="M154.235,188.33c4.14,1.55,6.24,6.16,4.69,10.3s-6.17,6.24-10.3,4.69l-25.22-9.45
		c-8.12-3.04-17.2,1.09-20.24,9.21c-1.2,3.21-4.25,5.2-7.49,5.2c-0.94,0-1.88-0.17-2.81-0.51c-4.14-1.55-6.23-6.16-4.68-10.3
		c2.97-7.94,8.85-14.24,16.56-17.75c7.72-3.51,16.33-3.81,24.27-0.83L154.235,188.33z"/>
	<path style="fill:#333333;" d="M123.555,230.87c8.67,0,15.7,7.03,15.7,15.7c0,8.67-7.03,15.7-15.7,15.7
		c-8.68,0-15.71-7.03-15.71-15.7C107.845,237.9,114.875,230.87,123.555,230.87z"/>
</g>
<g>
</g>
<g>
</g>
<g>
</g>
<g>
</g>
<g>
</g>
<g>
</g>
<g>
</g>
<g>
</g>
<g>
</g>
<g>
</g>
<g>
</g>
<g>
</g>
<g>
</g>
<g>
</g>
<g>
</g>
</svg>
